<?xml version="1.0" encoding="UTF-8"?>
<svg xmlns="http://www.w3.org/2000/svg" xmlns:xlink="http://www.w3.org/1999/xlink" viewBox="0 0 55 55" width="55px" height="55px">
<defs>
<linearGradient id="linear0" gradientUnits="userSpaceOnUse" x1="86" y1="14.33244" x2="86" y2="159.925064" gradientTransform="matrix(0.319767,0,0,0.319767,0,0)">
<stop offset="0" style="stop-color:rgb(25.098041%,31.764707%,30.588236%);stop-opacity:1;"/>
<stop offset="1" style="stop-color:rgb(18.82353%,89.019608%,79.215688%);stop-opacity:1;"/>
</linearGradient>
<linearGradient id="linear1" gradientUnits="userSpaceOnUse" x1="120.9375" y1="14.33244" x2="120.9375" y2="159.925064" gradientTransform="matrix(0.319767,0,0,0.319767,0,0)">
<stop offset="0" style="stop-color:rgb(25.098041%,31.764707%,30.588236%);stop-opacity:1;"/>
<stop offset="1" style="stop-color:rgb(18.82353%,89.019608%,79.215688%);stop-opacity:1;"/>
</linearGradient>
<linearGradient id="linear2" gradientUnits="userSpaceOnUse" x1="72.5625" y1="14.33244" x2="72.5625" y2="159.925064" gradientTransform="matrix(0.319767,0,0,0.319767,0,0)">
<stop offset="0" style="stop-color:rgb(25.098041%,31.764707%,30.588236%);stop-opacity:1;"/>
<stop offset="1" style="stop-color:rgb(18.82353%,89.019608%,79.215688%);stop-opacity:1;"/>
</linearGradient>
<linearGradient id="linear3" gradientUnits="userSpaceOnUse" x1="77.9375" y1="14.33244" x2="77.9375" y2="159.925064" gradientTransform="matrix(0.319767,0,0,0.319767,0,0)">
<stop offset="0" style="stop-color:rgb(25.098041%,31.764707%,30.588236%);stop-opacity:1;"/>
<stop offset="1" style="stop-color:rgb(18.82353%,89.019608%,79.215688%);stop-opacity:1;"/>
</linearGradient>
<linearGradient id="linear4" gradientUnits="userSpaceOnUse" x1="83.3125" y1="14.33244" x2="83.3125" y2="159.925064" gradientTransform="matrix(0.319767,0,0,0.319767,0,0)">
<stop offset="0" style="stop-color:rgb(25.098041%,31.764707%,30.588236%);stop-opacity:1;"/>
<stop offset="1" style="stop-color:rgb(18.82353%,89.019608%,79.215688%);stop-opacity:1;"/>
</linearGradient>
<linearGradient id="linear5" gradientUnits="userSpaceOnUse" x1="77.9375" y1="14.33781" x2="77.9375" y2="159.922363" gradientTransform="matrix(0.319767,0,0,0.319767,0,0)">
<stop offset="0" style="stop-color:rgb(25.098041%,31.764707%,30.588236%);stop-opacity:1;"/>
<stop offset="1" style="stop-color:rgb(18.82353%,89.019608%,79.215688%);stop-opacity:1;"/>
</linearGradient>
<linearGradient id="linear6" gradientUnits="userSpaceOnUse" x1="77.9375" y1="14.33244" x2="77.9375" y2="159.925064" gradientTransform="matrix(0.319767,0,0,0.319767,0,0)">
<stop offset="0" style="stop-color:rgb(25.098041%,31.764707%,30.588236%);stop-opacity:1;"/>
<stop offset="1" style="stop-color:rgb(18.82353%,89.019608%,79.215688%);stop-opacity:1;"/>
</linearGradient>
<linearGradient id="linear7" gradientUnits="userSpaceOnUse" x1="120.9375" y1="14.33244" x2="120.9375" y2="159.925064" gradientTransform="matrix(0.319767,0,0,0.319767,0,0)">
<stop offset="0" style="stop-color:rgb(25.098041%,31.764707%,30.588236%);stop-opacity:1;"/>
<stop offset="1" style="stop-color:rgb(18.82353%,89.019608%,79.215688%);stop-opacity:1;"/>
</linearGradient>
<linearGradient id="linear8" gradientUnits="userSpaceOnUse" x1="43" y1="69.428879" x2="43" y2="98.994057" gradientTransform="matrix(0.319767,0,0,0.319767,0,0)">
<stop offset="0" style="stop-color:rgb(44.705883%,56.078434%,54.11765%);stop-opacity:1;"/>
<stop offset="1" style="stop-color:rgb(57.647061%,94.117647%,89.019608%);stop-opacity:1;"/>
</linearGradient>
</defs>
<g id="surface54265363">
<path style=" stroke:none;fill-rule:nonzero;fill:url(#linear0);" d="M 49.84375 16.328125 C 49.84375 13.265625 48.628906 10.40625 46.417969 8.28125 C 44.210938 6.15625 41.296875 5.042969 38.238281 5.164062 C 32.441406 5.386719 27.730469 10.097656 27.507812 15.894531 C 27.503906 16.039062 27.515625 16.328125 27.515625 16.328125 L 18.90625 16.328125 C 11.324219 16.328125 5.15625 22.496094 5.15625 30.078125 C 5.15625 37.527344 11.109375 43.609375 18.507812 43.820312 L 22.886719 48.914062 C 23.378906 49.503906 24.121094 49.84375 24.921875 49.84375 C 25.722656 49.84375 26.464844 49.503906 26.949219 48.925781 L 31.335938 43.824219 C 38.734375 43.609375 44.6875 37.527344 44.6875 30.078125 C 44.6875 29.210938 44.601562 28.359375 44.441406 27.5 L 49.84375 27.5 Z M 42.96875 30.078125 C 42.96875 36.710938 37.570312 42.109375 30.9375 42.109375 L 30.542969 42.109375 L 25.636719 47.816406 C 25.308594 48.210938 24.542969 48.21875 24.199219 47.804688 L 19.300781 42.109375 L 18.90625 42.109375 C 12.273438 42.109375 6.875 36.710938 6.875 30.078125 C 6.875 23.445312 12.273438 18.046875 18.90625 18.046875 L 27.636719 18.046875 C 27.980469 20.625 29.003906 22.394531 30.621094 24.078125 C 32.75 26.285156 35.605469 27.5 38.671875 27.5 L 42.6875 27.5 C 42.871094 28.359375 42.96875 29.207031 42.96875 30.078125 Z M 48.125 25.78125 L 38.671875 25.78125 C 36.078125 25.78125 33.660156 24.753906 31.859375 22.882812 C 30.0625 21.015625 29.125 18.554688 29.226562 15.960938 C 29.410156 11.136719 33.480469 7.066406 38.300781 6.882812 C 38.425781 6.878906 38.550781 6.875 38.675781 6.875 C 41.132812 6.875 43.449219 7.804688 45.226562 9.515625 C 47.097656 11.316406 48.125 13.734375 48.125 16.328125 Z M 48.125 25.78125 "/>
<path style=" stroke:none;fill-rule:nonzero;fill:url(#linear1);" d="M 38.671875 19.765625 C 37.722656 19.765625 36.953125 20.535156 36.953125 21.484375 C 36.953125 22.433594 37.722656 23.203125 38.671875 23.203125 C 39.621094 23.203125 40.390625 22.433594 40.390625 21.484375 C 40.390625 20.535156 39.621094 19.765625 38.671875 19.765625 Z M 38.671875 19.765625 "/>
<path style=" stroke:none;fill-rule:nonzero;fill:url(#linear2);" d="M 20.625 22.34375 L 25.78125 22.34375 L 25.78125 24.0625 L 20.625 24.0625 Z M 20.625 22.34375 "/>
<path style=" stroke:none;fill-rule:nonzero;fill:url(#linear3);" d="M 20.625 25.78125 L 29.21875 25.78125 L 29.21875 27.5 L 20.625 27.5 Z M 20.625 25.78125 "/>
<path style=" stroke:none;fill-rule:nonzero;fill:url(#linear4);" d="M 20.625 29.21875 L 32.65625 29.21875 L 32.65625 30.9375 L 20.625 30.9375 Z M 20.625 29.21875 "/>
<path style=" stroke:none;fill-rule:nonzero;fill:url(#linear5);" d="M 10.3125 32.65625 L 39.53125 32.65625 L 39.53125 34.375 L 10.3125 34.375 Z M 10.3125 32.65625 "/>
<path style=" stroke:none;fill-rule:nonzero;fill:url(#linear6);" d="M 16.328125 36.09375 L 33.515625 36.09375 L 33.515625 37.8125 L 16.328125 37.8125 Z M 16.328125 36.09375 "/>
<path style=" stroke:none;fill-rule:nonzero;fill:url(#linear7);" d="M 38.671875 10.3125 C 36.777344 10.3125 35.234375 12.03125 35.234375 13.75 L 36.953125 13.75 C 36.953125 12.890625 37.722656 12.03125 38.671875 12.03125 C 39.621094 12.03125 40.390625 12.800781 40.390625 13.75 C 40.390625 14.699219 39.621094 15.46875 38.671875 15.46875 L 37.8125 15.46875 L 37.8125 18.046875 L 39.53125 18.046875 L 39.53125 17.078125 C 40.390625 16.699219 42.109375 15.347656 42.109375 13.75 C 42.109375 11.855469 40.566406 10.3125 38.671875 10.3125 Z M 38.671875 10.3125 "/>
<path style=" stroke:none;fill-rule:nonzero;fill:url(#linear8);" d="M 17.1875 30.9375 L 10.3125 30.9375 L 10.3125 29.21875 C 10.3125 25.421875 13.390625 22.34375 17.1875 22.34375 Z M 17.1875 30.9375 "/>
</g>
</svg>
