<?xml version="1.0" encoding="UTF-8"?>
<svg xmlns="http://www.w3.org/2000/svg" xmlns:xlink="http://www.w3.org/1999/xlink" viewBox="0 0 55 55" width="55px" height="55px">
<defs>
<linearGradient id="linear0" gradientUnits="userSpaceOnUse" x1="129" y1="111.754311" x2="129" y2="135.052246" gradientTransform="matrix(0.319767,0,0,0.319767,0,0)">
<stop offset="0" style="stop-color:rgb(44.705883%,56.078434%,54.11765%);stop-opacity:1;"/>
<stop offset="1" style="stop-color:rgb(57.647061%,94.117647%,89.019608%);stop-opacity:1;"/>
</linearGradient>
<linearGradient id="linear1" gradientUnits="userSpaceOnUse" x1="69.875" y1="31.801189" x2="69.875" y2="140.206879" gradientTransform="matrix(0.319767,0,0,0.319767,0,0)">
<stop offset="0" style="stop-color:rgb(25.098041%,31.764707%,30.588236%);stop-opacity:1;"/>
<stop offset="1" style="stop-color:rgb(18.82353%,89.019608%,79.215688%);stop-opacity:1;"/>
</linearGradient>
<linearGradient id="linear2" gradientUnits="userSpaceOnUse" x1="67.1875" y1="31.801189" x2="67.1875" y2="140.206879" gradientTransform="matrix(0.319767,0,0,0.319767,0,0)">
<stop offset="0" style="stop-color:rgb(25.098041%,31.764707%,30.588236%);stop-opacity:1;"/>
<stop offset="1" style="stop-color:rgb(18.82353%,89.019608%,79.215688%);stop-opacity:1;"/>
</linearGradient>
<linearGradient id="linear3" gradientUnits="userSpaceOnUse" x1="86" y1="31.801189" x2="86" y2="140.206879" gradientTransform="matrix(0.319767,0,0,0.319767,0,0)">
<stop offset="0" style="stop-color:rgb(25.098041%,31.764707%,30.588236%);stop-opacity:1;"/>
<stop offset="1" style="stop-color:rgb(18.82353%,89.019608%,79.215688%);stop-opacity:1;"/>
</linearGradient>
</defs>
<g id="surface37890991">
<path style=" stroke:none;fill-rule:nonzero;fill:url(#linear0);" d="M 42.96875 36.09375 L 39.53125 36.09375 C 39.058594 36.09375 38.671875 36.480469 38.671875 36.953125 L 38.671875 42.96875 L 43.828125 42.96875 L 43.828125 36.953125 C 43.828125 36.480469 43.441406 36.09375 42.96875 36.09375 Z M 42.96875 36.09375 "/>
<path style=" stroke:none;fill-rule:nonzero;fill:url(#linear1);" d="M 21.484375 35.234375 L 23.203125 35.234375 L 23.203125 38.671875 L 21.484375 38.671875 Z M 21.484375 35.234375 "/>
<path style=" stroke:none;fill-rule:nonzero;fill:url(#linear2);" d="M 16.328125 25.78125 L 26.640625 25.78125 L 26.640625 27.5 L 16.328125 27.5 Z M 16.328125 25.78125 "/>
<path style=" stroke:none;fill-rule:nonzero;fill:url(#linear3);" d="M 48.125 27.5 L 48.125 25.78125 C 48.125 24.832031 47.355469 24.0625 46.40625 24.0625 L 36.09375 24.0625 L 36.09375 22.34375 C 37.042969 22.34375 37.8125 21.574219 37.8125 20.625 L 37.8125 18.90625 C 37.8125 17.957031 37.042969 17.1875 36.09375 17.1875 L 35.765625 17.1875 L 32.804688 11.261719 C 32.507812 10.675781 31.921875 10.3125 31.265625 10.3125 L 11.703125 10.3125 C 11.046875 10.3125 10.460938 10.675781 10.164062 11.261719 L 7.203125 17.1875 L 6.875 17.1875 C 5.925781 17.1875 5.15625 17.957031 5.15625 18.90625 L 5.15625 20.625 C 5.15625 21.574219 5.925781 22.34375 6.875 22.34375 L 6.875 42.96875 C 6.875 43.917969 7.644531 44.6875 8.59375 44.6875 L 46.40625 44.6875 C 47.355469 44.6875 48.125 43.917969 48.125 42.96875 L 48.125 32.65625 C 49.074219 32.65625 49.84375 31.886719 49.84375 30.9375 L 49.84375 29.21875 C 49.84375 28.269531 49.074219 27.5 48.125 27.5 Z M 46.40625 25.78125 L 46.40625 27.5 L 36.09375 27.5 L 36.09375 25.78125 Z M 11.703125 12.03125 L 31.265625 12.03125 L 33.84375 17.1875 L 9.125 17.1875 Z M 6.875 18.90625 L 36.09375 18.90625 L 36.09375 20.625 L 6.875 20.625 Z M 34.375 22.34375 L 34.375 36.09375 L 30.9375 36.09375 L 30.9375 37.8125 L 34.375 37.8125 L 34.375 39.53125 L 26.640625 39.53125 L 26.640625 31.796875 C 26.640625 30.375 25.484375 29.21875 24.0625 29.21875 L 18.90625 29.21875 C 17.484375 29.21875 16.328125 30.375 16.328125 31.796875 L 16.328125 39.53125 L 8.59375 39.53125 L 8.59375 37.8125 L 12.03125 37.8125 L 12.03125 36.09375 L 8.59375 36.09375 L 8.59375 22.34375 Z M 8.59375 42.96875 L 8.59375 41.25 L 16.328125 41.25 L 16.328125 42.96875 Z M 18.046875 42.96875 L 18.046875 31.796875 C 18.046875 31.324219 18.433594 30.9375 18.90625 30.9375 L 24.0625 30.9375 C 24.535156 30.9375 24.921875 31.324219 24.921875 31.796875 L 24.921875 42.96875 Z M 26.640625 42.96875 L 26.640625 41.25 L 34.375 41.25 L 34.375 42.96875 Z M 46.40625 42.96875 L 36.09375 42.96875 L 36.09375 32.65625 L 46.40625 32.65625 Z M 48.125 30.9375 L 36.09375 30.9375 L 36.09375 29.21875 L 48.125 29.21875 Z M 48.125 30.9375 "/>
</g>
</svg>
